<svg width="32" height="32" viewBox="0 0 32 32" fill="none" xmlns="http://www.w3.org/2000/svg">
<g clip-path="url(#clip0_39_202)">
<path d="M27.5557 27.5557H4.44455C4.2088 27.5557 3.98271 27.6493 3.81601 27.816C3.64931 27.9827 3.55566 28.2088 3.55566 28.4446C3.55566 28.6803 3.64931 28.9064 3.81601 29.0731C3.98271 29.2398 4.2088 29.3334 4.44455 29.3334H27.5557C27.7914 29.3334 28.0175 29.2398 28.1842 29.0731C28.3509 28.9064 28.4446 28.6803 28.4446 28.4446C28.4446 28.2088 28.3509 27.9827 28.1842 27.816C28.0175 27.6493 27.7914 27.5557 27.5557 27.5557Z" fill="black"/>
<path d="M16 26.2046L25.4311 16.7734C25.5768 16.6034 25.6528 16.3847 25.6442 16.1609C25.6356 15.9372 25.5428 15.725 25.3845 15.5667C25.2262 15.4084 25.014 15.3157 24.7903 15.307C24.5666 15.2984 24.3478 15.3745 24.1778 15.5201L16.8889 22.8001V4.44455C16.8889 4.2088 16.7953 3.98271 16.6286 3.81601C16.4619 3.64931 16.2358 3.55566 16 3.55566C15.7643 3.55566 15.5382 3.64931 15.3715 3.81601C15.2048 3.98271 15.1111 4.2088 15.1111 4.44455V22.8001L7.83113 15.5201C7.75144 15.4271 7.65338 15.3515 7.5431 15.2981C7.43282 15.2448 7.3127 15.2148 7.19029 15.2101C7.06787 15.2053 6.9458 15.226 6.83173 15.2707C6.71766 15.3153 6.61407 15.3831 6.52744 15.4698C6.44081 15.5564 6.37303 15.66 6.32834 15.774C6.28365 15.8881 6.26302 16.0102 6.26775 16.1326C6.27248 16.255 6.30246 16.3751 6.35582 16.4854C6.40917 16.5957 6.48475 16.6938 6.5778 16.7734L16 26.2046Z" fill="black"/>
</g>
<defs>
<clipPath id="clip0_39_202">
<rect width="32" height="32" fill="white"/>
</clipPath>
</defs>
</svg>
