<svg width="35" height="35" viewBox="0 0 35 35" fill="none" xmlns="http://www.w3.org/2000/svg">
<g id="healthicons:ui-user-profile-outline">
<g id="Group">
<path id="Vector" fill-rule="evenodd" clip-rule="evenodd" d="M10.7983 25.312C15.7894 24.5828 19.226 24.6455 24.2237 25.3375C24.5856 25.39 24.9163 25.5716 25.1548 25.8489C25.3932 26.1262 25.5232 26.4804 25.5209 26.8461C25.5209 27.1961 25.4006 27.5359 25.1833 27.8013C24.8045 28.2641 24.4165 28.7192 24.0195 29.1663H25.9452C26.0663 29.022 26.1881 28.8747 26.3113 28.7252C26.7438 28.1948 26.9798 27.5312 26.9792 26.8469C26.9792 25.3703 25.9015 24.0979 24.4235 23.8937C19.3076 23.1857 15.7318 23.1179 10.5875 23.8697C9.09421 24.0877 8.02087 25.3798 8.02087 26.8666C8.02087 27.5264 8.23598 28.179 8.64358 28.7077C8.76389 28.8637 8.88275 29.0169 9.00087 29.1671H10.8799C10.5106 28.7248 10.1503 28.2751 9.79931 27.8181C9.59074 27.5445 9.47823 27.2098 9.47921 26.8658C9.47921 26.0805 10.0436 25.4221 10.7983 25.312ZM17.5 18.2288C18.0746 18.2288 18.6435 18.1157 19.1743 17.8958C19.7051 17.676 20.1874 17.3537 20.5936 16.9474C20.9999 16.5412 21.3221 16.0589 21.542 15.5281C21.7619 14.9973 21.875 14.4284 21.875 13.8538C21.875 13.2793 21.7619 12.7104 21.542 12.1796C21.3221 11.6488 20.9999 11.1665 20.5936 10.7602C20.1874 10.354 19.7051 10.0317 19.1743 9.81187C18.6435 9.592 18.0746 9.47884 17.5 9.47884C16.3397 9.47884 15.2269 9.93978 14.4064 10.7602C13.586 11.5807 13.125 12.6935 13.125 13.8538C13.125 15.0142 13.586 16.127 14.4064 16.9474C15.2269 17.7679 16.3397 18.2288 17.5 18.2288ZM17.5 19.6872C19.0471 19.6872 20.5309 19.0726 21.6248 17.9786C22.7188 16.8847 23.3334 15.4009 23.3334 13.8538C23.3334 12.3067 22.7188 10.823 21.6248 9.72905C20.5309 8.63509 19.0471 8.02051 17.5 8.02051C15.9529 8.02051 14.4692 8.63509 13.3753 9.72905C12.2813 10.823 11.6667 12.3067 11.6667 13.8538C11.6667 15.4009 12.2813 16.8847 13.3753 17.9786C14.4692 19.0726 15.9529 19.6872 17.5 19.6872Z" fill="black"/>
<path id="Vector_2" fill-rule="evenodd" clip-rule="evenodd" d="M17.5 30.6248C24.7487 30.6248 30.625 24.7485 30.625 17.4998C30.625 10.2512 24.7487 4.37484 17.5 4.37484C10.2514 4.37484 4.37502 10.2512 4.37502 17.4998C4.37502 24.7485 10.2514 30.6248 17.5 30.6248ZM17.5 32.0832C25.5544 32.0832 32.0834 25.5542 32.0834 17.4998C32.0834 9.44546 25.5544 2.9165 17.5 2.9165C9.44565 2.9165 2.91669 9.44546 2.91669 17.4998C2.91669 25.5542 9.44565 32.0832 17.5 32.0832Z" fill="black"/>
</g>
</g>
</svg>
