<svg width="35" height="35" viewBox="0 0 35 35" fill="none" xmlns="http://www.w3.org/2000/svg">
<path fill-rule="evenodd" clip-rule="evenodd" d="M10.7979 25.3125C15.789 24.5833 19.2256 24.646 24.2233 25.338C24.5853 25.3904 24.916 25.5721 25.1544 25.8494C25.3928 26.1267 25.5229 26.4809 25.5205 26.8466C25.5205 27.1966 25.4002 27.5364 25.1829 27.8018C24.8042 28.2646 24.4162 28.7197 24.0192 29.1668H25.9449C26.0659 29.0225 26.1877 28.8752 26.3109 28.7257C26.7434 28.1953 26.9794 27.5317 26.9788 26.8474C26.9788 25.3708 25.9011 24.0984 24.4231 23.8942C19.3073 23.1862 15.7314 23.1184 10.5872 23.8702C9.09384 24.0882 8.02051 25.3803 8.02051 26.867C8.02051 27.5269 8.23561 28.1795 8.64322 28.7082C8.76353 28.8642 8.88238 29.0174 9.00051 29.1676H10.8796C10.5102 28.7253 10.1499 28.2756 9.79895 27.8186C9.59038 27.545 9.47786 27.2103 9.47884 26.8663C9.47884 26.081 10.0432 25.4226 10.7979 25.3125ZM17.4997 18.2293C18.0742 18.2293 18.6431 18.1162 19.1739 17.8963C19.7047 17.6764 20.187 17.3542 20.5933 16.9479C20.9995 16.5417 21.3218 16.0594 21.5416 15.5286C21.7615 14.9978 21.8747 14.4289 21.8747 13.8543C21.8747 13.2798 21.7615 12.7109 21.5416 12.1801C21.3218 11.6493 20.9995 11.167 20.5933 10.7607C20.187 10.3545 19.7047 10.0322 19.1739 9.81236C18.6431 9.59249 18.0742 9.47933 17.4997 9.47933C16.3394 9.47933 15.2266 9.94027 14.4061 10.7607C13.5856 11.5812 13.1247 12.694 13.1247 13.8543C13.1247 15.0147 13.5856 16.1275 14.4061 16.9479C15.2266 17.7684 16.3394 18.2293 17.4997 18.2293ZM17.4997 19.6877C19.0468 19.6877 20.5305 19.0731 21.6245 17.9791C22.7184 16.8852 23.333 15.4014 23.333 13.8543C23.333 12.3072 22.7184 10.8235 21.6245 9.72954C20.5305 8.63558 19.0468 8.021 17.4997 8.021C15.9526 8.021 14.4688 8.63558 13.3749 9.72954C12.2809 10.8235 11.6663 12.3072 11.6663 13.8543C11.6663 15.4014 12.2809 16.8852 13.3749 17.9791C14.4688 19.0731 15.9526 19.6877 17.4997 19.6877Z" fill="black"/>
<path fill-rule="evenodd" clip-rule="evenodd" d="M17.4998 30.6251C24.7485 30.6251 30.6248 24.7487 30.6248 17.5001C30.6248 10.2514 24.7485 4.37508 17.4998 4.37508C10.2512 4.37508 4.37484 10.2514 4.37484 17.5001C4.37484 24.7487 10.2512 30.6251 17.4998 30.6251ZM17.4998 32.0834C25.5542 32.0834 32.0832 25.5545 32.0832 17.5001C32.0832 9.44571 25.5542 2.91675 17.4998 2.91675C9.44546 2.91675 2.9165 9.44571 2.9165 17.5001C2.9165 25.5545 9.44546 32.0834 17.4998 32.0834Z" fill="black"/>
</svg>
