<svg width="30" height="30" viewBox="0 0 30 30" fill="none" xmlns="http://www.w3.org/2000/svg">
<path d="M24.0938 8.71875L17.5313 2.15625C17.3438 1.96875 17.1562 1.875 16.875 1.875H7.5C6.46875 1.875 5.625 2.71875 5.625 3.75V26.25C5.625 27.2812 6.46875 28.125 7.5 28.125H22.5C23.5312 28.125 24.375 27.2812 24.375 26.25V9.375C24.375 9.09375 24.2812 8.90625 24.0938 8.71875ZM16.875 4.125L22.125 9.375H16.875V4.125ZM22.5 26.25H7.5V3.75H15V9.375C15 10.4062 15.8438 11.25 16.875 11.25H22.5V26.25Z" fill="black"/>
<path d="M9.375 20.625H20.625V22.5H9.375V20.625ZM9.375 15H20.625V16.875H9.375V15Z" fill="black"/>
</svg>
