<svg width="30" height="30" viewBox="0 0 30 30" fill="none" xmlns="http://www.w3.org/2000/svg">
<g clip-path="url(#clip0_52_185)">
<path d="M28.225 6.93333L23.3333 2.01667C23.0101 1.69505 22.5726 1.51451 22.1167 1.51451C21.6607 1.51451 21.2232 1.69505 20.9 2.01667L3.55832 19.3333L1.97499 26.1667C1.92037 26.4165 1.92224 26.6753 1.98047 26.9243C2.03869 27.1733 2.15181 27.4061 2.31154 27.6058C2.47127 27.8054 2.67359 27.9669 2.90372 28.0783C3.13384 28.1898 3.38596 28.2485 3.64165 28.25C3.76079 28.262 3.88085 28.262 3.99999 28.25L10.9083 26.6667L28.225 9.36667C28.5466 9.04342 28.7271 8.60599 28.7271 8.15C28.7271 7.69402 28.5466 7.25658 28.225 6.93333ZM10.075 25.1667L3.59999 26.525L5.07499 20.175L18.05 7.25L23.05 12.25L10.075 25.1667ZM24.1667 11.0417L19.1667 6.04167L22.0667 3.15833L26.9833 8.15833L24.1667 11.0417Z" fill="black"/>
</g>
<defs>
<clipPath id="clip0_52_185">
<rect width="30" height="30" fill="white"/>
</clipPath>
</defs>
</svg>
