<svg width="32" height="32" viewBox="0 0 32 32" fill="none" xmlns="http://www.w3.org/2000/svg">
<path d="M15.9999 10.7929C13.1328 10.7929 10.7929 13.1328 10.7929 15.9999C10.7929 18.8671 13.1328 21.207 15.9999 21.207C18.8671 21.207 21.207 18.8671 21.207 15.9999C21.207 13.1328 18.8671 10.7929 15.9999 10.7929ZM31.6171 15.9999C31.6171 13.8437 31.6367 11.707 31.5156 9.55463C31.3945 7.05463 30.8242 4.83588 28.996 3.00775C27.164 1.17572 24.9492 0.609316 22.4492 0.488222C20.2929 0.367129 18.1562 0.38666 16.0038 0.38666C13.8476 0.38666 11.7109 0.367129 9.55854 0.488222C7.05854 0.609316 4.83978 1.17963 3.01166 3.00775C1.17963 4.83978 0.613222 7.05463 0.492129 9.55463C0.371035 11.7109 0.390566 13.8476 0.390566 15.9999C0.390566 18.1523 0.371035 20.2929 0.492129 22.4453C0.613222 24.9453 1.18354 27.164 3.01166 28.9921C4.84369 30.8242 7.05854 31.3906 9.55854 31.5117C11.7148 31.6328 13.8515 31.6132 16.0038 31.6132C18.1601 31.6132 20.2968 31.6328 22.4492 31.5117C24.9492 31.3906 27.1679 30.8203 28.996 28.9921C30.8281 27.1601 31.3945 24.9453 31.5156 22.4453C31.6406 20.2929 31.6171 18.1562 31.6171 15.9999V15.9999ZM15.9999 24.0117C11.5663 24.0117 7.98822 20.4335 7.98822 15.9999C7.98822 11.5663 11.5663 7.98822 15.9999 7.98822C20.4335 7.98822 24.0117 11.5663 24.0117 15.9999C24.0117 20.4335 20.4335 24.0117 15.9999 24.0117ZM24.3398 9.53119C23.3046 9.53119 22.4687 8.69525 22.4687 7.6601C22.4687 6.62494 23.3046 5.789 24.3398 5.789C25.3749 5.789 26.2109 6.62494 26.2109 7.6601C26.2112 7.9059 26.163 8.14935 26.0691 8.3765C25.9752 8.60365 25.8373 8.81004 25.6635 8.98385C25.4897 9.15766 25.2833 9.29547 25.0562 9.38939C24.829 9.48331 24.5856 9.5315 24.3398 9.53119V9.53119Z" fill="black"/>
</svg>
