<svg width="32" height="32" viewBox="0 0 32 32" fill="none" xmlns="http://www.w3.org/2000/svg">
<g clip-path="url(#clip0_34_137)">
<path d="M6.27417 0.00805664C2.82722 0.00805664 0.00610352 2.82911 0.00610352 6.27612V25.727C0.00610352 29.174 2.82716 31.9941 6.27417 31.9941H25.7251C29.1721 31.9941 31.9921 29.174 31.9921 25.727V6.27612C31.9921 2.82918 29.1721 0.00805664 25.7251 0.00805664H6.27417ZM7.85068 5.28639C9.50342 5.28639 10.5214 6.37139 10.5529 7.79759C10.5529 9.19231 9.50335 10.3078 7.81871 10.3078H7.7877C6.16642 10.3078 5.11852 9.19238 5.11852 7.79759C5.11852 6.37142 6.19814 5.28639 7.85065 5.28639H7.85068ZM22.0932 11.9523C25.2718 11.9523 27.6545 14.0298 27.6545 18.4943V26.8286H22.824V19.053C22.824 17.0991 22.1249 15.7661 20.3768 15.7661C19.0423 15.7661 18.2468 16.6646 17.8976 17.5325C17.77 17.8431 17.7386 18.2768 17.7386 18.7112V26.8286H12.9081C12.9081 26.8286 12.9715 13.657 12.9081 12.2932H17.7396V14.3515C18.3815 13.3611 19.5298 11.9523 22.0932 11.9523V11.9523ZM5.40345 12.2942H10.2339V26.8287H5.40345V12.2942Z" fill="black"/>
</g>
<defs>
<clipPath id="clip0_34_137">
<rect width="32" height="32" fill="white"/>
</clipPath>
</defs>
</svg>
