<svg width="20" height="20" viewBox="0 0 20 20" fill="none" xmlns="http://www.w3.org/2000/svg">
<path d="M10 18.3333C10 18.3333 16.25 13.3333 16.25 7.91666C16.25 4.465 13.4517 1.66666 10 1.66666C6.54833 1.66666 3.75 4.465 3.75 7.91666C3.75 13.3333 10 18.3333 10 18.3333Z" stroke="black" stroke-linejoin="round"/>
<path d="M10 10.4167C10.3283 10.4167 10.6534 10.352 10.9567 10.2264C11.26 10.1007 11.5356 9.91658 11.7678 9.68443C11.9999 9.45228 12.1841 9.17669 12.3097 8.87337C12.4353 8.57006 12.5 8.24497 12.5 7.91666C12.5 7.58836 12.4353 7.26327 12.3097 6.95996C12.1841 6.65664 11.9999 6.38104 11.7678 6.1489C11.5356 5.91675 11.26 5.7326 10.9567 5.60697C10.6534 5.48133 10.3283 5.41666 10 5.41666C9.33696 5.41666 8.70107 5.68006 8.23223 6.1489C7.76339 6.61774 7.5 7.25362 7.5 7.91666C7.5 8.57971 7.76339 9.21559 8.23223 9.68443C8.70107 10.1533 9.33696 10.4167 10 10.4167V10.4167Z" stroke="black" stroke-linejoin="round"/>
</svg>
