<svg version="1.2" xmlns="http://www.w3.org/2000/svg" viewBox="0 0 203 69" width="203" height="69">
	<title>logocertoredimensionada</title>
	<style>
		.s0 { fill: #2fab66 } 
		.s1 { fill: #b9ce02 } 
		.s2 { fill: #575656 } 
		.s3 { fill: #14847b } 
		.s4 { fill: #14847c } 
	</style>
	<g id="surface1">
		<path class="s0" d="m45 7.5c1.1 0.7 2 1.8 2.3 3.1 0.1 0.8 0.1 1.4 0 2.2-0.5 2.5-0.2 5 1.2 7.2 0.8 1.2 1.8 2 3 2.8 0.3 0.2 0.6 0.5 0.9 0.8q0.1 0.1 0.2 0.2c0.8 1 1.1 2.3 1.1 3.6-0.2 1.6-0.9 2.7-2.2 3.8q-0.4 0.3-0.9 0.6c-2 1.5-3.1 3.6-3.5 6-0.2 0.9-0.1 1.7 0.1 2.6 0.2 1.6 0.3 3-0.6 4.5-0.8 1.1-1.7 1.8-3.1 2.2q-0.1 0.1-0.3 0.1c-0.7 0.1-1.5 0.1-2.2-0.1-2.4-0.5-4.7 0-6.9 1.3-1.2 0.8-2.1 1.9-2.9 3.1q-0.3 0.4-0.7 0.7c-0.9 0.9-1.4 2.1-1.5 3.4 0 1.2 0.4 2.5 1.3 3.4q0.1 0.2 0.3 0.3c0.8 0.8 1.5 2 1.6 3.3 0 1.6-0.4 3-1.5 4.2-1.1 1-2.3 1.4-3.7 1.5-1.6-0.1-2.8-0.8-3.9-1.9-0.9-1.1-1.2-2.3-1.1-3.6 0.1-1.4 0.6-2.4 1.5-3.3 1.1-1.2 1.7-2.4 1.7-4-0.1-1.3-0.8-2.5-1.7-3.3-0.9-0.9-1.4-2.1-1.5-3.3 0-1.4 0.2-2.3 1-3.5 2-3.6 2.5-7.8 1.5-11.8-0.4-1.3-1-2.5-1.7-3.8-0.8-1.4-1-2.7-0.6-4.4 0.5-1.4 1.3-2.3 2.7-3.1 1.4-0.6 2.8-0.5 4.2 0q1.8 0.8 2.7 2.6c0.5 1.3 0.6 2.8 0 4.1q-0.3 0.6-0.6 1.2c-2.1 3.8-2.6 7.8-1.4 12q0.3 1 0.8 2c0.2 0.3 0.2 0.3 0.2 0.6 1.2 0.4 2.6 0.4 3.9-0.1 1.1-0.6 1.9-1.4 2.3-2.6q0.1-0.5 0.3-1.1c0.4-1.4 1.1-2.6 2.4-3.4 0.6-0.3 1.2-0.4 1.9-0.6 1.5-0.4 2.5-1.3 3.3-2.6 0.4-1 0.4-2.3 0-3.4-0.2-0.5-0.5-1.1-0.8-1.6-0.7-1.1-0.8-2.5-0.5-3.8 0.2-0.8 0.5-1.3 1-2 0.6-1 0.7-2.3 0.4-3.5-0.3-1.1-1-2-2-2.7-0.6-0.2-1.2-0.4-1.8-0.5-0.7-0.2-1.3-0.5-1.9-0.9q-0.2-0.1-0.3-0.2c-1-0.7-1.6-1.8-1.8-3.1q0-0.4 0-0.9 0-0.1 0-0.3c0-1.4 0.6-2.4 1.6-3.4q0.1-0.1 0.2-0.2c1.6-1.5 4.1-1.5 6-0.4z"/>
		<path class="s1" d="m30.2 1.4c1 0.8 1.7 1.9 1.9 3.1 0.2 1.5 0 2.8-0.9 4.1-1 1.2-2.1 1.9-3.7 2.1-1.3 0-2.5-0.4-3.6-1.1-1.2-0.7-2.2-0.9-3.5-0.6-1.2 0.3-2.2 1.1-2.9 2.1-0.3 0.6-0.4 1.2-0.6 1.8-0.3 1.3-0.9 2.4-2 3.2-0.8 0.4-1.5 0.6-2.3 0.9-1.3 0.3-2.2 0.9-3 2-0.3 0.5-0.5 1.1-0.6 1.8q0 0.1 0 0.2c-0.1 1.3 0.5 2.5 1.1 3.6 0.4 0.6 0.6 1.2 0.7 1.9q0 0.2 0 0.5c-0.1 1.5-0.7 2.9-1.8 3.9-1.4 1.1-2.8 1.2-4.5 1.1-1.3-0.3-2.4-1.1-3.2-2.2-0.8-1.3-0.9-2.8-0.6-4.3 0.5-1.5 1.6-2.5 2.8-3.3 1.9-1.3 3.1-3.3 3.5-5.5 0.2-1.1 0.2-2.2 0-3.3-0.3-1.5-0.3-3 0.6-4.3 0.8-1.2 1.8-2 3.2-2.3q1.3-0.2 2.6 0.1c2.4 0.5 4.8-0.1 6.9-1.4 1-0.8 1.8-1.8 2.6-2.9 1.8-2.3 4.7-2.8 7.3-1.2z"/>
		<path class="s2" d="m136.3 19c2.1 2 3.2 4.5 3.4 7.3 0 3.1-0.9 5.9-3 8.1-1.9 2-4.4 3.2-7.1 3.2-3.2 0.1-5.8-0.7-8.2-2.9q-0.1-0.2-0.3-0.3-0.1-0.1-0.2-0.3c-2.1-2.1-2.7-5-2.7-7.9 0.1-2.3 1-4.4 2.4-6.2q0.1-0.1 0.2-0.3c1.7-2.1 4.4-3.2 7.1-3.5 3.2-0.3 6 0.7 8.4 2.8zm-11.7 3.9c-1.2 1.5-1.6 3.1-1.5 5.1 0.2 1.1 0.7 1.9 1.4 2.8 0.1 0.1 0.1 0.1 0.2 0.2 0.9 1 2.4 1.7 3.8 1.8q2.6 0.1 4.5-1.7c1.3-1.3 1.8-2.9 1.8-4.7-0.1-1.5-0.9-2.9-2.1-4-2.4-1.9-6-1.9-8.1 0.5z"/>
		<path class="s2" d="m98 16.1c0.5 0.1 0.8 0.5 1.2 0.9q0.2 0.3 0.5 0.5 0.1 0.1 0.2 0.3 0.5 0.4 1 0.8c0.6 0.6 1.1 1.2 1.7 1.8q0.8 0.8 1.7 1.5c0.5 0.5 1.1 1.1 1.6 1.6q0.1 0.2 0.3 0.3 0.1 0.2 0.2 0.3 0.4 0.3 0.8 0.7 0.9 0.7 1.7 1.6 0.1 0.1 0.3 0.3 0.3 0.3 0.7 0.7 0-0.2 0-0.4 0-1.9 0-3.8 0-0.9 0-1.9 0-0.9 0-1.8 0-0.4 0-0.8 0.1-0.5 0.1-0.9 0-0.2 0-0.3c0-0.7 0-0.7 0.3-1q0.4 0 0.9 0 0.1 0 0.3 0 0.3 0 0.6 0 0.4 0 0.9 0 0.3 0 0.6 0 0.1 0 0.2 0c0.7 0 0.7 0 1 0.2 0 0.4 0 0.4 0 0.9q0 0.1 0 0.2 0 0.4 0 0.9 0 0.3 0 0.6 0 0.8 0 1.6 0 0.7 0 1.4 0 1.6 0 3.3 0 1.6 0 3.3 0 1.5 0 2.9 0 0.9 0 1.7 0 0.8 0 1.7 0 0.3 0 0.6 0 0.4 0 0.8 0 0.2 0 0.4 0 0.2 0 0.4c-0.5 0.3-0.7 0.3-1.3 0.2-0.6-0.3-1-0.7-1.4-1.1q-0.2-0.2-0.3-0.3-0.2-0.2-0.5-0.5-0.3-0.3-0.7-0.7-0.3-0.3-0.5-0.5-0.1-0.1-0.2-0.2-0.6-0.6-1-1.1c-0.7-0.8-1.4-1.4-2.1-2.1q-0.2-0.2-0.4-0.5-0.6-0.5-1.2-1.1-0.5-0.6-1.1-1.2-1.2-1.1-2.3-2.3-0.1 0.2-0.1 0.4 0 1.9 0 3.9 0 1 0 2 0 0.9 0 1.9 0 0.4 0 0.7 0 0.5 0 1c0 0.2 0 0.2 0 0.4 0 0.6 0 0.6-0.3 0.9-0.4 0.2-0.7 0.2-1.2 0.2q-0.1 0-0.2 0-0.3 0-0.5 0-0.5 0-0.9 0c-1.3 0-1.3 0-1.7-0.3q-0.1-0.5-0.1-1 0-0.1 0-0.3 0-0.5 0-1.1 0-0.3 0-0.7 0-1 0-2 0-0.8 0-1.7 0-1.8 0-3.7 0-1.7-0.1-3.3 0-1.2 0-2.4 0-0.7 0-1.3 0-0.8 0-1.5 0-0.2 0-0.5 0-0.1 0-0.3 0-0.2 0-0.4c0.1-0.7 0.6-0.9 1.3-0.8z"/>
		<path class="s2" d="m64.3 16.5q0.2 0 0.4 0 0.2 0 0.4 0 0.2 0 0.4 0 0.7 0 1.4 0 0.4 0 0.9 0 1 0 2 0 1.1 0 2.3 0 1.1 0 2.2 0 0.5 0 0.9 0 0.7 0 1.4 0c0.2 0 0.2 0 0.3 0q0.2 0 0.4 0 0.2 0 0.3 0c0.3 0 0.3 0 0.5 0.3 0.2 1-0.1 1.9-0.7 2.8-0.6 0.7-1.5 1.2-2.4 1.3q-0.7 0-1.3 0-0.3 0-0.5 0-0.6 0-1.3 0-0.6 0-1.3 0-1.2 0-2.5 0 0 1.8 0 3.6c0.6 0 0.6 0 1.1 0q0.6 0 1.1 0 0.4 0 0.7 0 0.6 0 1.1 0 0.2 0 0.3 0 0.4 0 0.9 0c0.2 0.3 0.2 0.3 0.2 0.6q0 0.3 0 0.5 0 0.1 0 0.3 0 0.2 0 0.5 0 0.4 0 0.8c0 1.4 0 1.4-0.1 1.7-0.5 0.1-1 0.1-1.5 0.1q-0.2 0-0.3 0-0.5 0-1.1 0-0.3 0-0.7 0-0.8 0-1.7 0 0 1.9 0 3.9 0.8 0 1.6-0.1 0.6 0 1.2 0 0.6 0 1.3 0 0.7 0 1.4 0 0.3 0 0.5 0c1.2 0 2.1 0.3 3 1 0.8 0.9 1.1 1.9 1.1 3q0 0.2-0.1 0.3c-0.4 0.3-0.5 0.3-0.9 0.3-0.2 0-0.2 0-0.4 0q-0.2 0-0.4 0c-0.2 0-0.2 0-0.4 0q-0.6 0-1.3 0-0.5 0-0.9 0-1.1 0-2.2 0-0.9 0-1.8 0-1.2 0-2.4 0-0.5 0-0.9 0-0.7 0-1.3 0-0.2 0-0.4 0-0.2 0-0.4 0-0.1 0-0.3 0c-0.2 0-0.2 0-0.6-0.3 0-0.3 0-0.3 0-0.8q0-0.1 0-0.2 0-0.4 0-0.9 0-0.3 0-0.6 0-0.8 0-1.6 0-0.9 0-1.7 0-1.5 0-2.9 0-1.6 0-3.3 0-1.6 0-3.2 0-0.7 0-1.4 0-0.8 0-1.6 0-0.3 0-0.5 0-0.4 0-0.8 0-0.3 0-0.5c0-0.6 0.3-0.6 0.8-0.6z"/>
		<path class="s2" d="m141.9 16.5q0.3 0 0.5-0.1c1.2 0 2.2 0.3 3.1 1.2 0.5 0.6 0.8 1.3 1.1 1.9q0.3 0.6 0.5 1.1 0.6 1.4 1.3 2.8 0 0.1 0.1 0.2 0.4 0.8 0.7 1.7 0.2 0.2 0.3 0.5 0.1 0.3 0.3 0.7c0.1 0.2 0.1 0.2 0.2 0.4 0.1 0.4 0.1 0.4 0.1 0.6q0.1 0 0.3 0 0-0.2 0.1-0.4c0.3-1 0.7-1.8 1.1-2.7q0.3-0.6 0.6-1.2 0.1-0.1 0.1-0.3 0.5-1.1 1-2.2 0.1-0.1 0.1-0.3 0.3-0.6 0.6-1.1c0.9-2.1 0.9-2.1 1.4-2.8 0.6-0.2 1.2 0 1.7 0.3 0.9 0.4 1.3 0.9 1.6 1.8 0.4 1.6-0.2 2.8-0.9 4.2q-0.2 0.3-0.3 0.6-0.3 0.6-0.6 1.2-0.5 1.1-1 2.2-0.8 1.7-1.6 3.4-1.3 2.6-2.5 5.2 0 0.2-0.1 0.3-0.1 0.3-0.3 0.7c-0.5 1.1-0.5 1.1-0.8 1.2-0.4 0.1-0.4 0.1-0.9 0-0.6-0.9-1-1.9-1.5-2.9q-0.1-0.3-0.3-0.6-0.9-2-1.8-4-1-2.2-2-4.4-1.2-2.3-2.2-4.7-0.5-1-1-2.1-0.1-0.1-0.1-0.3-0.2-0.2-0.3-0.5c-0.2-0.5-0.3-0.9-0.3-1.5 0.4-0.3 1.3-0.1 1.7-0.1z"/>
		<path class="s3" d="m30.1 22.8c1.1 0.8 1.7 1.9 2 3.2 0.2 1.6-0.1 2.8-0.9 4.2-2.1 3.8-2.6 7.8-1.4 12q0.3 1 0.8 2c0.1 0.3 0.1 0.3 0.1 0.5-0.4-0.1-0.8-0.2-1.2-0.5-1.1-0.7-2.3-0.7-3.5-0.6-1.2 0.3-2.2 1-3 1.9 0.2-0.6 0.4-1.1 0.7-1.6 1.6-3.5 1.7-7.5 0.5-11.1-0.3-1-0.9-2-1.4-3-0.8-1.4-1.1-2.7-0.6-4.4 0.5-1.4 1.3-2.3 2.7-3.1 1.7-0.8 3.6-0.5 5.2 0.5z"/>
		<path class="s2" d="m200.1 18.6c0.4 0.4 0.4 0.6 0.4 1.1-0.2 0.4-0.2 0.4-0.5 0.7q-0.2 0.1-0.3 0.3c-0.3 0.2-0.3 0.2-0.6 0.2-0.4 0-0.6-0.2-0.9-0.5-1.6-1.3-3.6-2-5.6-1.9-2.4 0.2-4.3 1.3-5.9 3.1-1.3 1.7-1.9 3.9-1.7 6 0.4 2.5 1.5 4.6 3.5 6.1 2 1.4 4.4 1.8 6.9 1.3q1.3-0.2 2.5-0.8c0.2-0.1 0.2-0.1 0.5-0.1q0-2 0-4.1c-1.2 0-1.2 0-2.5 0q-0.2 0-0.4 0c-0.3 0-0.3 0-0.5 0-0.4 0-0.4 0-0.6-0.3-0.1-0.3-0.1-0.3-0.1-0.8 0-0.3 0-0.3 0-0.5 0.1-0.4 0.1-0.4 0.3-0.7 0.3 0 0.3 0 0.6 0q0.2 0 0.3 0c0.2 0 0.2 0 0.4 0 0.2 0 0.2 0 0.4 0q0.4 0 0.8 0 0.7 0 1.3 0 0.4 0 0.8 0 0.2 0 0.4 0 0.2 0 0.3 0 0.2 0 0.4 0 0.1 0 0.2 0c0.3 0.5 0.3 0.6 0.3 1.1q0 0.2 0 0.4 0 0.3 0 0.5c0 0.2 0 0.2 0 0.5q0 0.5 0 1 0 0.6 0 1.2 0 0.6 0 1.2 0 0.3 0 0.5 0 0.2 0 0.4 0 0.2 0 0.4c-0.1 0.4-0.2 0.7-0.5 1q-0.5 0.2-0.9 0.4c-0.2 0.1-0.2 0.1-0.3 0.1-3.3 1.4-7 1.8-10.3 0.4-1.2-0.5-2.2-1.2-3.2-2.1q-0.1 0-0.2-0.1c-1.3-1.2-2.1-2.8-2.6-4.5-0.1-0.2-0.1-0.2-0.2-0.3-0.7-2.6-0.3-5.6 0.9-7.9 0.5-1 1.2-1.8 2-2.7q0.1-0.1 0.3-0.2c1.5-1.5 3.5-2.5 5.6-2.8q0.1 0 0.3 0c3.1-0.4 5.9 0.6 8.4 2.4z"/>
		<path class="s2" d="m178.9 18.4q0.1 0.1 0.2 0.1c0.4 0.3 0.5 0.5 0.6 0.9-0.1 0.4-0.2 0.6-0.5 0.9q-0.1 0.1-0.2 0.2c-0.4 0.4-0.4 0.4-0.7 0.4-0.4 0-0.6-0.2-1-0.5-1.7-1.4-3.9-2.1-6.1-1.8-1.5 0.2-2.7 0.8-4 1.7q-0.1 0-0.2 0.1c-1.7 1.3-2.6 3.5-2.9 5.6-0.1 2.3 0.5 4.4 1.9 6.3 0.1 0.1 0.1 0.1 0.2 0.2 1.3 1.6 3.3 2.5 5.3 2.7 2.4 0.2 4.3-0.7 6.3-2.1 0.3-0.2 0.3-0.2 0.7-0.2 0.5 0.3 0.8 0.5 1.1 1 0.1 0.3 0.1 0.3 0 0.7-1.1 1.6-3.5 2.5-5.4 2.9-2.8 0.5-5.8-0.1-8.2-1.7-2.3-1.8-4-4.2-4.4-7-0.4-3.1 0.1-6 2-8.4q0.6-0.7 1.1-1.3 0.2-0.1 0.3-0.2c1.5-1.4 3.5-2.3 5.5-2.6 0.1-0.1 0.1-0.1 0.3-0.1 2.9-0.4 5.8 0.4 8.1 2.2z"/>
		<path class="s2" d="m88.3 16.4c0.2 0 0.2 0 0.3 0q0.3 0 0.6 0 0.5 0.1 0.9 0 0.3 0 0.6 0 0.1 0 0.3 0c0.2 0.1 0.2 0.1 0.6 0.1 0.3 0.4 0.3 0.6 0.3 1.2q0 0.1 0 0.2 0 0.4 0 0.9 0 0.3 0 0.6 0 0.8 0 1.6 0 0.6 0 1.3 0 1.6 0 3.2 0 1.6 0 3.3 0 1.4 0 2.8 0 0.8 0 1.6 0 0.8 0 1.6 0 0.3 0 0.6 0 0.4 0 0.8 0 0.2 0 0.4c0 0.4 0 0.4-0.3 0.6-0.3 0.2-0.7 0.2-1.1 0.2q-0.1 0-0.3 0-0.2 0-0.5 0-0.4 0-0.8 0-0.3 0-0.5 0c-0.3 0-0.3 0-0.5 0-0.5 0-0.6-0.1-0.9-0.5-0.1-0.4-0.1-0.4-0.1-0.8q0-0.2 0-0.3 0-0.4 0-0.8 0-0.3 0-0.6 0-0.8 0-1.6 0-0.8 0-1.7 0-1.4 0-2.8 0-1.6 0-3.2 0-1.6 0-3.2 0-0.6 0-1.3 0-0.8 0-1.6 0-0.3 0-0.5 0-0.4 0.1-0.8 0-0.2 0-0.5c0-0.3 0-0.3 0.2-0.6 0.3-0.2 0.7-0.2 1.1-0.2z"/>
		<path class="s4" d="m14.6 37.8c1.2 0.8 2.1 1.9 2.4 3.3 0.2 1.6-0.1 3-1.1 4.4-1.1 1.1-2.4 1.7-4 1.8-1.4 0-2.6-0.6-3.6-1.5-1.2-1.2-1.5-2.6-1.5-4.2 0.1-1.2 0.7-2.2 1.5-3.1 1.7-1.6 4.3-1.9 6.3-0.7z"/>
		<path class="s2" d="m77.1 24.5q0.1 0 0.2 0 0.4 0 0.8 0 0.3 0 0.6 0 0.6 0 1.1 0 0.8 0 1.5 0 0.6 0 1.2 0 0.3 0 0.6 0 0.3 0 0.7 0 0.3 0 0.5 0c0.3 0 0.3 0 0.6 0.3q0 0.8 0 1.7 0 0.4 0 0.8 0 0.3 0 0.6 0 0.2 0 0.5 0 0.2 0 0.4c-0.5 0.2-0.7 0.2-1.2 0.2q-0.2 0-0.5 0-0.3 0-0.5 0-0.3 0-0.6 0-0.6 0-1.1 0-0.8 0-1.5 0-0.6 0-1.1 0-0.3 0-0.6 0-0.4 0-0.8 0c-0.2 0-0.2 0-0.4 0-0.3 0-0.3 0-0.6-0.2-0.2-0.3-0.2-0.6-0.2-1q0-0.1 0-0.3 0-0.2 0-0.5 0-0.4 0-0.8 0-0.2 0-0.5 0-0.2 0-0.4c0.1-0.4 0.1-0.4 0.2-0.6 0.4-0.3 0.6-0.2 1.1-0.2z"/>
		<path class="s2" d="m180.3 59.5c0.2 0 0.2 0 0.6 0.1 0.1 0.3 0.1 0.3 0.3 0.6q0 0.2 0.1 0.4 0.1 0.2 0.1 0.4c0.1 0.2 0.1 0.2 0.2 0.4q0.2 0.7 0.4 1.3 0.3 0.7 0.5 1.4 0.1 0.4 0.3 0.8 0 0.2 0.1 0.4 0.1 0.2 0.1 0.3c0.1 0.3 0.1 0.3 0.2 0.4q0.1-0.1 0.1-0.2 0.4-1 0.7-2 0.2-0.4 0.3-0.8 0.2-0.6 0.4-1.1 0-0.2 0.1-0.3 0.1-0.4 0.2-0.7 0.1-0.3 0.2-0.6 0.2-0.3 0.3-0.7c0.3-0.1 0.3-0.1 0.6-0.1 0.3 0.4 0.3 0.7 0.4 1.1q0.1 0.2 0.1 0.5 0.1 0.2 0.1 0.5 0.1 0.2 0.1 0.5 0.1 0.5 0.2 1.1 0.2 0.7 0.3 1.4 0.1 0.5 0.2 1 0.1 0.3 0.1 0.5 0.1 0.4 0.1 0.7c0.1 0.3 0.1 0.3 0.1 0.5q0.1 0.5 0.1 0.9-0.5 0-1 0-0.3-1-0.5-2c0-0.2 0-0.2 0-0.3q-0.1-0.6-0.2-1.1-0.1-0.3-0.2-0.7-0.1-0.9-0.3-1.7c-0.5 1.3-0.9 2.6-1.4 3.9q-0.2 0.5-0.3 1c-0.1 0.1-0.1 0.1-0.1 0.3-0.3 0.6-0.3 0.6-0.4 0.8q-0.3 0-0.6 0-0.7-1.7-1.3-3.4-0.2-0.5-0.3-0.9-0.1-0.3-0.2-0.6c-0.1-0.1-0.1-0.1-0.1-0.2-0.2-0.4-0.3-0.7-0.3-1.1q-0.1 0-0.2 0 0 0.2 0 0.3c-0.1 1.1-0.3 2.2-0.4 3.2q-0.1 0.5-0.2 0.9-0.1 0.3-0.1 0.6c0 0.1 0 0.1-0.1 0.3-0.1 0.6-0.1 0.6-0.2 0.7q-0.5 0.1-1 0c0.1-0.9 0.2-1.9 0.4-2.9q0.1-0.2 0.1-0.4 0.1-0.5 0.2-1 0.1-0.6 0.2-1.3 0.2-0.6 0.3-1.2c0-0.2 0-0.2 0.1-0.4q0-0.2 0-0.4 0.1-0.2 0.1-0.4c0.1-0.3 0.1-0.3 0.3-0.7z"/>
		<path class="s2" d="m128.5 60.5q0.1 0 0.3 0.1c-0.1 0.6-0.1 0.6-0.4 0.9-0.6 0-0.9-0.3-1.4-0.6-0.8-0.4-1.7-0.4-2.5-0.1-0.9 0.4-1.4 1.1-1.8 2-0.3 1-0.2 1.8 0.2 2.7 0.4 0.8 0.9 1.3 1.8 1.6 1.1 0.3 2.1 0.1 3.2-0.2q0-0.8 0-1.7-0.8 0-1.7 0 0-0.4 0-1 0.7 0 1.3 0 0.2 0 0.4 0c0.1 0 0.1 0 0.3 0 0.1 0 0.1 0 0.3 0 0.2 0 0.2 0 0.4 0.2q0 0.7 0 1.5 0 0.2 0 0.5c0.1 0.3 0 0.7 0 1.1-0.4 0.3-0.4 0.3-0.8 0.5q-0.1 0.1-0.3 0.1c-1.4 0.4-2.9 0.5-4.3-0.2-1.2-0.7-1.8-1.7-2.2-3-0.2-1.2 0-2.3 0.6-3.4 0.8-1 1.7-1.7 3-2 1.4-0.2 2.5 0.2 3.6 1z"/>
		<path class="s2" d="m86.3 60.3q0.2 0.1 0.5 0.3c-0.1 0.6-0.1 0.6-0.4 0.9-0.6-0.1-1-0.4-1.5-0.6-0.7-0.4-1.4-0.4-2.2-0.1q-1.3 0.4-1.9 1.6-0.6 1.3-0.2 2.7c0.3 0.8 0.9 1.4 1.6 1.8 0.8 0.4 1.6 0.6 2.4 0.3q0.8-0.4 1.7-0.8 0.2 0.2 0.5 0.4c-0.1 0.3-0.1 0.5-0.4 0.8-1.2 0.8-2.5 1-3.9 0.7-1.3-0.4-2.2-1.2-2.9-2.4-0.5-1.3-0.4-2.5 0-3.8q0.6-1.5 2.2-2.2c1.5-0.6 3.1-0.6 4.5 0.4z"/>
		<path class="s2" d="m63 47.9q2.6 0 5.4 0 0 0.3 0 0.7c-0.2 0.2-0.2 0.2-0.6 0.2q-0.2 0-0.5 0c-0.1 0-0.1 0-0.3 0q-0.4 0-0.9 0-0.3 0-0.6 0-0.7 0-1.5 0 0 1.4 0 2.8 0.4 0 0.8 0 0.4 0 0.7 0 0.3 0 0.6 0 0.3 0 0.7 0c0.2 0 0.2 0 0.5 0 0.3 0 0.3 0 0.4 0.2q0 0.3 0 0.7-1.8 0-3.7 0 0 1.5 0 3 0.5 0 0.9 0 0.5 0 0.9 0 0.3 0 0.6 0 0.5 0 0.9 0 0.1 0 0.3 0 0.3 0 0.6 0c0.2 0.1 0.2 0.1 0.2 0.5 0 0.4 0 0.4-0.2 0.5q-0.5 0-1.1 0-0.1 0-0.3 0-0.4 0-0.7 0-0.6 0-1.1 0-0.4 0-0.7 0c-0.2 0-0.2 0-0.4 0-0.8 0-0.8 0-0.9-0.1q0-0.4 0-0.8 0-0.1 0-0.3 0-0.4 0-0.8 0-0.3 0-0.6 0-0.7 0-1.5 0-0.9 0-1.8 0-1.4 0-2.7z"/>
		<path class="s2" d="m116.8 50.3c0.3 0.1 0.4 0.2 0.6 0.6q0.1 0.2 0.2 0.4 0.1 0.1 0.1 0.2 0.1 0.3 0.2 0.5 0.2 0.4 0.3 0.8c0.6 1.3 0.6 1.3 0.6 1.7q0.1 0 0.2 0c0-0.1 0-0.1 0-0.3 0.2-0.6 0.4-1.2 0.7-1.8q0.1-0.4 0.3-0.7 0.1-0.2 0.2-0.5 0-0.2 0.1-0.4c0.2-0.3 0.3-0.4 0.7-0.5 0.2 0.3 0.3 0.5 0.4 0.9q0 0.1 0 0.3 0.1 0.2 0.1 0.4 0 0.2 0.1 0.4 0 0.4 0.1 0.7 0.1 0.6 0.2 1.2 0.1 0.4 0.2 0.8 0 0.2 0 0.4 0.1 0.1 0.1 0.3 0 0.2 0 0.3 0 0.1 0.1 0.3c-0.3 0.2-0.3 0.2-0.6 0.2-0.3 0-0.3 0-0.6-0.2 0-0.4 0-0.4-0.1-0.7q0-0.2-0.1-0.4 0-0.2 0-0.5-0.1-0.4-0.2-0.8c0-0.2 0-0.2 0-0.4 0-0.2 0-0.2-0.2-0.4q-0.1 0.2-0.1 0.3-0.2 0.7-0.5 1.3-0.1 0.3-0.1 0.5-0.1 0.2-0.2 0.5c-0.1 0.2-0.1 0.2-0.2 0.4-0.1 0.3-0.1 0.3-0.5 0.4q-0.1 0-0.3 0-0.5-1.1-1-2.3-0.1-0.2-0.1-0.4-0.2-0.4-0.4-0.8 0 0.1 0 0.3-0.1 0.6-0.2 1.2c0 0.3 0 0.3-0.1 0.5q0 0.2 0 0.4c-0.1 0.2-0.1 0.2-0.1 0.4-0.1 0.3-0.1 0.3-0.3 0.7-0.4 0-0.4 0-0.8 0-0.1-0.4-0.1-0.7 0-1.1q0-0.1 0-0.3 0.1-0.2 0.1-0.3 0-0.2 0.1-0.4 0-0.4 0.1-0.8 0.1-0.6 0.2-1.1 0.1-0.4 0.2-0.8 0-0.2 0-0.3c0-0.2 0-0.2 0.1-0.4 0-0.1 0-0.1 0-0.3 0.1-0.2 0.1-0.2 0.4-0.4z"/>
		<path class="s2" d="m96.5 62.1c0.2 0 0.2 0 0.5 0.1 0.2 0.3 0.3 0.6 0.4 0.9q0.1 0.1 0.1 0.3 0.2 0.4 0.3 0.8 0.2 0.3 0.3 0.6 0.3 0.6 0.5 1.3c0.3-0.4 0.4-0.7 0.6-1.2q0.1-0.1 0.1-0.2 0.2-0.4 0.3-0.8 0.1-0.2 0.3-0.5 0.2-0.6 0.5-1.3c0.3 0.1 0.3 0.1 0.6 0.1q0.2 1.2 0.4 2.3 0.1 0.4 0.2 0.8 0.1 0.5 0.2 1.1 0 0.2 0.1 0.3c0.1 1 0.1 1 0 1.5q-0.4 0-0.8 0c-0.2-0.4-0.3-0.8-0.4-1.3q0-0.2 0-0.4-0.1-0.1-0.1-0.4 0-0.2-0.1-0.4 0-0.5-0.1-1-0.1 0.2-0.1 0.4-0.3 0.6-0.5 1.1-0.1 0.3-0.2 0.5-0.1 0.4-0.2 0.8-0.1 0.2-0.2 0.4c-0.2 0.3-0.2 0.3-0.5 0.5-0.1 0-0.1 0-0.2 0-0.6-1.1-1.1-2.3-1.5-3.5q-0.3 1.2-0.5 2.5c-0.1 0.7-0.1 0.7-0.2 0.8q-0.5 0.1-0.9 0c0-0.6 0-1.3 0.2-1.9q0-0.2 0-0.3 0.1-0.4 0.1-0.7 0.1-0.5 0.2-1 0.1-0.3 0.1-0.6 0.1-0.2 0.1-0.3c0.1-0.5 0.2-0.9 0.4-1.3z"/>
		<path class="s2" d="m194.8 59.9q0.2 0.2 0.4 0.4c0 0.5 0 0.5-0.3 0.8-0.4 0-0.7-0.1-1-0.3-0.5-0.2-1-0.3-1.7-0.2-0.4 0.2-0.4 0.2-0.7 0.7-0.1 0.7-0.1 0.7 0.3 1.3 0.4 0.3 0.8 0.5 1.3 0.8 1 0.4 1.8 0.9 2.4 1.7 0.2 0.7 0.3 1.5-0.1 2.1-0.4 0.6-1 1-1.7 1.2-1.2 0.1-2.1-0.1-3.2-0.8-0.3-0.2-0.3-0.2-0.3-0.6 0-0.2 0-0.2 0.3-0.5 0.5 0 0.8 0.2 1.2 0.4 0.5 0.4 1 0.6 1.7 0.4 0.5-0.2 0.7-0.2 1-0.7 0-0.5 0-0.7-0.2-1.2-0.4-0.4-0.8-0.5-1.3-0.8-2.2-1-2.2-1-2.6-2.1-0.1-0.8 0-1.4 0.4-2.1 1.1-1.2 2.7-1.1 4-0.5z"/>
		<path class="s2" d="m201.5 50.8c0.6 0.5 1.1 1.1 1.3 2 0.1 1-0.1 1.9-0.7 2.7-0.6 0.6-1.2 1-2 1-1.1 0.1-1.8 0-2.6-0.7-0.7-0.7-1-1.4-1.1-2.4 0.1-1 0.5-1.8 1.2-2.5 1.3-0.8 2.7-0.9 3.9-0.1zm-3.5 1.3q-0.1 0.1-0.2 0.3c-0.1 0.1-0.1 0.1-0.2 0.2-0.2 0.6-0.2 1.2 0.1 1.8 0.3 0.6 0.7 0.9 1.3 1.1 0.7 0.1 1.3 0.1 1.9-0.3 0.5-0.4 0.8-0.9 0.9-1.5 0-0.7-0.1-1.1-0.5-1.7-0.5-0.5-1-0.7-1.7-0.8-0.6 0.1-1.2 0.4-1.6 0.9z"/>
		<path class="s2" d="m82.3 50.8c0.7 0.6 1.1 1.2 1.3 2.2 0 1-0.1 1.7-0.7 2.5-0.7 0.7-1.4 1-2.4 1-0.9 0-1.6-0.1-2.2-0.7-0.7-0.7-1-1.4-1.1-2.4 0.1-0.9 0.4-1.7 1.1-2.4 1.2-0.9 2.7-1.1 4-0.2zm-3.6 1.3c-0.4 0.6-0.5 1-0.4 1.8 0.2 0.6 0.6 1.1 1.2 1.5 0.5 0.2 1.2 0.2 1.8 0 0.6-0.3 1-0.7 1.2-1.4 0.1-0.6 0.1-1.1-0.2-1.7-0.6-0.6-1.1-1-1.9-1.1-0.7 0.1-1.2 0.4-1.7 0.9z"/>
		<path class="s2" d="m168 50.8c0.7 0.6 1.2 1.2 1.3 2.2 0 1-0.1 1.7-0.7 2.5-0.7 0.7-1.4 1-2.4 1-1 0-1.7-0.2-2.4-1-0.6-0.7-0.8-1.5-0.8-2.4 0.2-1 0.6-1.7 1.3-2.3 1.2-0.8 2.5-0.7 3.7 0zm-3.4 1.1c-0.5 0.6-0.7 1.2-0.6 1.9 0.2 0.7 0.6 1.1 1.2 1.6 0.5 0.2 1.1 0.2 1.7 0.1 0.6-0.3 1-0.7 1.3-1.4 0.1-0.6 0.1-1.2-0.2-1.8-0.6-0.7-0.6-0.7-1.6-1.1-0.8 0-1.3 0.2-1.8 0.7z"/>
		<path class="s2" d="m156.6 50.3c0.3 0.2 0.3 0.2 0.5 0.6q0.8 0.9 1.6 1.7c0.4 0.5 0.9 1.1 1.3 1.7 0-0.2 0-0.2 0-0.4q0-0.6 0-1.2 0.1-0.3 0.1-0.6 0-0.4 0-0.8 0-0.2 0-0.4c0-0.4 0-0.4 0.2-0.5 0.3 0 0.3 0 0.7 0 0.1 0.1 0.1 0.1 0.1 0.3q0 0.2 0 0.4 0 0.1 0 0.3 0 0.2 0 0.4 0 0.2 0 0.4 0 0.6 0 1.2 0 0.5 0 0.9 0 1 0 2.1c-0.3 0-0.3 0-0.6 0.1q-0.1-0.1-0.3-0.3 0-0.1-0.1-0.2-0.2-0.2-0.4-0.4-0.5-0.6-0.9-1.2-0.1-0.1-0.2-0.2-0.2-0.2-0.4-0.4-0.5-0.6-1.1-1.3 0 0.2 0 0.4 0 0.6 0 1.2 0 0.3 0 0.6 0 0.4-0.1 0.8c0 0.3 0 0.3 0 0.5 0 0.4 0 0.4-0.1 0.5-0.3 0-0.3 0-0.6 0-0.3-0.2-0.3-0.2-0.3-0.5q0-0.2 0-0.3 0-0.2 0-0.4 0-0.2 0-0.4 0-0.2 0-0.4 0-0.6 0-1.2 0-0.4 0-0.8 0-1.1 0-2.1c0.3-0.1 0.3-0.1 0.6-0.1z"/>
		<path class="s2" d="m114 62.4c0.9 0.4 1.3 1.1 1.6 2 0.1 0.8 0.2 1.7-0.3 2.5-0.7 0.8-1.4 1.4-2.5 1.5-0.9 0.1-1.8-0.3-2.6-0.9-0.7-1-0.8-1.9-0.7-3.1 0.3-1 0.8-1.6 1.6-2 0.9-0.5 2-0.4 2.9 0zm-3.1 1.5c-0.4 0.6-0.6 1.1-0.5 1.8 0.2 0.7 0.7 1.2 1.3 1.6 0.8 0.2 1.4 0.1 2.1-0.3 0.5-0.3 0.8-0.8 0.9-1.4 0-0.7-0.1-1.3-0.5-1.8-0.6-0.6-1.1-0.7-1.9-0.7-0.6 0.1-1 0.3-1.4 0.8z"/>
		<path class="s2" d="m135.9 50.3c0.2 0 0.2 0 0.4 0 1 0 1.8 0.2 2.5 0.8 0.7 0.9 1 1.5 1 2.6-0.1 0.9-0.5 1.6-1.2 2.2-0.9 0.6-1.8 0.6-2.8 0.6q-0.2 0-0.4 0-0.1 0-0.3 0-0.1 0-0.3 0c-0.2 0-0.2 0-0.3-0.1q0-0.3 0-0.6c0-0.2 0-0.2 0-0.3q0-0.2 0-0.4 0-0.2 0-0.4 0-0.4 0-0.8 0-0.7 0-1.3 0-0.4 0-0.8 0-0.2 0-0.4 0-0.2 0-0.3 0-0.2 0-0.4c0-0.6 1-0.4 1.4-0.4zm-0.4 1q0 2 0 4.2c1.3 0.1 1.3 0.1 2.4-0.4 0.5-0.5 0.7-0.9 0.8-1.7 0-0.7-0.2-1.1-0.7-1.6-0.8-0.6-1.5-0.5-2.5-0.5z"/>
		<path class="s2" d="m152 62.3q0.5-0.1 1.1-0.1 0.4 0 0.8 0c0.9 0 1.6 0.1 2.3 0.7 0.7 0.7 1 1.3 1.1 2.3-0.1 0.9-0.4 1.6-1 2.3-0.9 0.7-1.8 0.8-2.9 0.8q-0.1 0-0.3 0c-1 0-1 0-1.1-0.2q0-0.2 0-0.5 0-0.2 0-0.4 0-0.2 0-0.4 0-0.2 0-0.4 0-0.6 0-1.2 0-0.4 0-0.9 0-1 0-2zm1 0.8q0 2.1 0 4.3c1.4 0 1.4 0 2.5-0.6 0.5-0.6 0.7-1.1 0.7-1.9-0.1-0.6-0.4-1.1-0.9-1.4-0.8-0.5-1.3-0.4-2.3-0.4z"/>
		<path class="s2" d="m62.6 62.3c3.5 0 3.5 0 4.3 0.7q0.1 0.1 0.2 0.2c0.1 0.2 0.1 0.2 0.2 0.3 0.6 0.8 0.5 1.7 0.4 2.6-0.2 0.8-0.7 1.3-1.3 1.8-0.9 0.4-0.9 0.4-3.8 0.4q0-3 0-6zm1 0.8q0 2.1 0 4.3c1.4 0 1.4 0 2.5-0.6 0.5-0.6 0.7-1 0.6-1.8-0.1-0.7-0.2-1.1-0.8-1.5-0.8-0.5-1.2-0.4-2.3-0.4z"/>
		<path class="s2" d="m144.6 62.1c0.7 0.2 0.8 0.2 1.2 0.7 0.1 0.2 0.1 0.2 0.3 0.3q0.5 0.7 1.1 1.4 0.6 0.8 1.3 1.5 0.1-1.8 0.1-3.8 0.5 0 1 0 0 3 0 6c-0.2 0.1-0.2 0.1-0.5 0.2q-1.2-1.4-2.3-2.8-0.6-0.7-1.2-1.4 0 2-0.1 4-0.4 0-0.9 0 0-3 0-6.1z"/>
		<path class="s2" d="m131.6 62.3q0.8-0.1 1.6-0.1 0.2 0 0.5 0c1.3 0 1.3 0 1.9 0.6 0.5 0.4 0.5 1 0.5 1.6-0.1 0.6-0.3 0.8-0.7 1.2-0.3 0.1-0.3 0.1-0.5 0.2q0 0 0.1 0.1 0.2 0.5 0.4 0.9 0.1 0.1 0.2 0.3 0.1 0.1 0.2 0.3c0 0.1 0 0.1 0.1 0.2 0.1 0.3 0.1 0.3 0.1 0.7q-0.6 0-1.1 0c-0.1-0.3-0.1-0.3-0.2-0.5q-0.2-0.3-0.3-0.6-0.1-0.2-0.1-0.3c-0.2-0.3-0.3-0.5-0.5-0.8-0.4-0.1-0.8-0.1-1.2-0.1q0 0.2 0 0.5 0 0.3 0 0.6 0 0.1 0 0.3 0 0.3 0 0.7c0 0.1 0 0.1-0.1 0.2q-0.4 0-0.9 0 0-3 0-6zm1 0.8q0 1 0 2c1.1 0.1 1.1 0.1 2.1-0.2 0.3-0.4 0.3-0.4 0.4-0.8-0.1-0.4-0.3-0.6-0.6-0.8-0.5-0.3-1.3-0.2-1.9-0.2z"/>
		<path class="s2" d="m188.3 50.8c0.2 0.2 0.2 0.2 0.2 0.5 0 0.3 0 0.3-0.3 0.6-0.3-0.1-0.6-0.2-0.9-0.3-0.6-0.3-1.1-0.3-1.7-0.1-0.5 0.4-0.9 0.8-1.1 1.4-0.1 0.8 0 1.3 0.5 2 0.4 0.4 0.9 0.5 1.4 0.5 0.6 0 0.9-0.2 1.3-0.4 0.4 0 0.4 0 0.7 0.1 0.1 0.3 0.1 0.3 0.2 0.5-0.4 0.5-0.8 0.7-1.4 0.9-0.4 0-0.4 0-0.7 0q0 0.1 0 0.3 0.1 0 0.3 0.1c0.3 0.1 0.3 0.1 0.6 0.5 0 0.4 0 0.6-0.2 1-0.4 0.3-0.7 0.3-1.2 0.2q-0.1 0-0.3-0.1 0-0.3 0-0.6c0.5 0 0.5 0 0.9 0.1 0-0.2 0-0.2-0.1-0.5-0.3-0.2-0.3-0.2-0.6-0.2q0-0.4 0-0.8-0.1 0-0.2-0.1c-1-0.2-1.6-0.6-2.1-1.5-0.4-0.9-0.4-1.8-0.1-2.7 0.4-0.9 1-1.4 1.9-1.8 1-0.3 2-0.1 2.9 0.4z"/>
		<path class="s2" d="m142.6 50.4q0.2 0 0.4 0c0.2 0 0.2 0 0.3 0q0.4 0 0.8 0c0.2 0 0.2 0 0.5 0q0.2 0 0.4 0c0.4 0 0.4 0 0.5 0.1q0 0.4 0 0.8-1.4 0-2.9 0 0 0.8 0 1.6 0.3 0 0.5 0 0.4 0 0.7 0c0.2 0 0.2 0 0.3 0q0.2 0 0.4 0c0.1 0 0.1 0 0.3 0 0.2 0 0.2 0 0.3 0.1 0 0.4 0 0.4 0 0.8-0.1 0.1-0.1 0.1-0.3 0.1q-0.2 0-0.3 0-0.2 0-0.4 0c-0.1 0-0.1 0-0.3 0q-0.2 0-0.3 0-0.5 0-0.9 0 0 0.8 0 1.6 0.3 0 0.6 0 0.4 0 0.8 0 0.2 0 0.4 0 0.2 0 0.4 0 0.1 0 0.3 0c0.3 0 0.3 0 0.4 0.1 0 0.4 0 0.4 0 0.8-0.3 0.3-1.4 0.1-1.9 0.1q-0.2 0-0.5 0-0.2 0-0.4 0c-0.3 0-0.3 0-0.5 0-0.3 0-0.3 0-0.6-0.2 0-0.3 0-0.3 0-0.6q0-0.2 0-0.4 0-0.1 0-0.3 0-0.2 0-0.4 0-0.4 0-0.8 0-0.6 0-1.3 0-0.3 0-0.7c0-0.2 0-0.2 0-0.4q0-0.2 0-0.4 0-0.1 0-0.3c0-0.5 0.5-0.3 1-0.3z"/>
		<path class="s2" d="m192.4 50.3c0.2 0 0.2 0 0.5 0.1q0.2 0.4 0.4 0.9 0.1 0.1 0.2 0.3 0.2 0.4 0.4 0.9 0.1 0.3 0.2 0.6 0.4 0.7 0.7 1.4 0.1 0.3 0.2 0.6 0.1 0.1 0.2 0.3 0 0.1 0.1 0.2c0.1 0.3 0.1 0.6 0.1 0.9-0.7 0-0.7 0-1-0.1-0.2-0.4-0.4-0.8-0.5-1.1q-1.3 0-2.7 0-0.2 0.5-0.5 1.1c-0.3 0.1-0.6 0.1-1 0.1 0.1-0.7 0.3-1.2 0.6-1.9q0.1-0.1 0.1-0.3 0.2-0.4 0.5-0.9 0.1-0.3 0.2-0.5 0.6-1.4 1.3-2.6zm0.1 2q-0.4 0.9-0.9 2 0.9 0 1.9 0-0.4-1-0.9-2 0 0-0.1 0z"/>
		<path class="s2" d="m179.3 50.3c0.3 0.1 0.3 0.1 0.5 0.4 0.1 0.2 0.1 0.2 0.2 0.4q0.1 0.2 0.1 0.3 0.2 0.4 0.4 0.7 0.1 0.3 0.2 0.5 0.3 0.7 0.6 1.3 0.2 0.5 0.4 0.9 0.1 0.3 0.2 0.5 0.1 0.3 0.2 0.5c0.1 0.3 0.1 0.3 0 0.7-0.7 0-0.7 0-1-0.1q-0.2-0.6-0.5-1.1-1.3-0.1-2.6-0.2c-0.2 0.5-0.2 0.5-0.3 1.1-0.2 0.2-0.2 0.2-0.7 0.3q-0.2 0-0.4 0c-0.1-0.4-0.1-0.5 0-0.9q0.2-0.3 0.3-0.5 0-0.1 0.1-0.3 0.2-0.4 0.4-0.8 0.1-0.3 0.2-0.6c1.4-2.9 1.4-2.9 1.6-3.1zm0 2q-0.1 0.3-0.3 0.7-0.1 0.3-0.2 0.5c-0.2 0.4-0.2 0.4-0.2 0.8q0.9 0 1.7 0c-0.2-0.7-0.5-1.4-0.8-2q-0.1 0-0.2 0z"/>
		<path class="s2" d="m126.1 50.3c0.4 0.1 0.4 0.1 0.6 0.4q0.1 0.3 0.2 0.5 0.1 0.1 0.1 0.3 0.2 0.4 0.4 0.8 0.1 0.2 0.3 0.5 0.3 0.7 0.6 1.3 0.1 0.3 0.2 0.5 0.2 0.4 0.3 0.8c0.1 0.2 0.1 0.2 0.2 0.4 0.1 0.3 0.1 0.3 0 0.7-0.3 0.1-0.3 0.1-0.7 0-0.4-0.4-0.6-0.8-0.8-1.2q-1.3-0.1-2.6-0.2c-0.2 0.5-0.2 0.5-0.4 1.1-0.1 0.2-0.1 0.2-0.6 0.3q-0.2 0-0.4 0c-0.2-0.4-0.1-0.5 0-0.9q0.1-0.3 0.2-0.5 0.1-0.1 0.2-0.3 0.2-0.4 0.4-0.8 0.1-0.3 0.2-0.6c1.4-2.9 1.4-2.9 1.6-3.1zm0 2q-0.2 0.3-0.3 0.7-0.2 0.3-0.3 0.5c-0.1 0.4-0.1 0.4-0.1 0.8q0.8 0 1.7 0c-0.2-0.7-0.5-1.4-0.8-2q-0.1 0-0.2 0z"/>
		<path class="s2" d="m139.9 62.1c0.3 0 0.3 0 0.6 0.1 0.2 0.4 0.3 0.7 0.5 1q0 0.2 0.1 0.3 0.2 0.5 0.4 0.9 0.2 0.5 0.4 1 0.1 0.3 0.3 0.6 0.3 0.8 0.7 1.5c0.1 0.2 0.1 0.2 0.1 0.7-0.4 0.1-0.4 0.1-0.9 0-0.3-0.3-0.6-0.7-0.6-1.2q-1.4 0-2.8 0-0.1 0.6-0.3 1.1c-0.2 0.1-0.2 0.1-0.4 0.2q-0.4 0-0.8-0.1c0.1-0.5 0.4-1 0.6-1.6q0.1-0.1 0.1-0.2 0.2-0.5 0.5-0.9 0.1-0.3 0.2-0.6 0.2-0.5 0.4-0.9 0.5-0.9 0.9-1.9zm0.1 2q-0.2 0.5-0.4 0.9 0 0.1-0.1 0.2c-0.2 0.5-0.2 0.5-0.3 0.9q0.9 0 1.8 0c-0.1-0.5-0.2-0.9-0.4-1.3q-0.1-0.2-0.2-0.4-0.1-0.1-0.2-0.3-0.1 0-0.2 0z"/>
		<path class="s2" d="m110.1 50.4q1.9 0 3.8 0 0 0.4 0 0.9-1.4 0-2.8 0 0 0.8 0 1.6 0.3 0 0.5 0 0.3 0 0.6 0c0.2 0 0.2 0 0.4 0q0.1 0 0.3 0 0.1 0 0.3 0c0.2 0 0.2 0 0.3 0.1 0 0.4 0 0.4 0 0.8-0.1 0.1-0.1 0.1-0.3 0.1q-0.2 0-0.3 0-0.2 0-0.3 0-0.2 0-0.4 0-0.1 0-0.3 0-0.4 0-0.8 0 0 0.8 0 1.6 0.3 0 0.6 0 0.4 0 0.7 0c0.2 0 0.2 0 0.4 0q0.2 0 0.4 0 0.1 0 0.3 0c0.3 0 0.3 0 0.4 0.1 0 0.4 0 0.4 0 0.8-0.3 0.2-0.6 0.1-0.9 0.1q-0.3 0-0.5 0-0.1 0-0.2 0-0.4 0-0.8 0-0.2 0-0.5 0-0.2 0-0.4 0c-0.3 0-0.3 0-0.5-0.1q0-0.3 0-0.6 0-0.2 0-0.4 0-0.1 0-0.3 0-0.2 0-0.5 0-0.6 0-1.2 0-0.5 0-0.9 0-1.1 0-2.1z"/>
		<path class="s2" d="m91.1 62.1c0.2 0 0.2 0 0.5 0.1 0.2 0.3 0.3 0.6 0.4 0.9q0.1 0.2 0.3 0.5 0 0.1 0.1 0.3 0.2 0.5 0.5 1 0.2 0.5 0.4 1 0.1 0.3 0.3 0.5 0.1 0.4 0.3 0.8 0.1 0.2 0.2 0.4 0.1 0.2 0.2 0.4c-0.1 0.1-0.1 0.1-0.2 0.2q-0.4 0-0.8 0c-0.5-0.8-0.5-0.8-0.5-1.2q-1.4 0.1-2.8 0.1-0.2 0.5-0.5 1c-0.1 0.1-0.1 0.1-0.6 0.2q-0.2 0-0.4-0.1c0.1-0.6 0.3-1.1 0.5-1.6q0.1-0.2 0.1-0.3 0.2-0.4 0.4-0.8 0.2-0.3 0.3-0.6 0.6-1.4 1.3-2.8zm0.2 1.9q-0.5 1-0.9 2.1 0.9 0 1.9 0c-0.2-0.5-0.4-1-0.6-1.5q-0.1-0.1-0.2-0.3-0.1-0.2-0.1-0.3-0.1 0-0.1 0z"/>
		<path class="s2" d="m159.6 62.2q0.2 0 0.5 0c0.1 0 0.1 0 0.2 0q0.4 0 0.8 0 0.3 0 0.6 0 0.6 0 1.3 0 0 0.4 0 0.8c-0.1 0.1-0.1 0.1-0.4 0.1q-0.2 0-0.3 0-0.2 0-0.4 0-0.2 0-0.4 0-0.2 0-0.4 0-0.5 0-1 0 0 0.8 0 1.6 0.3 0 0.5 0 0.4 0 0.7 0c0.2 0 0.2 0 0.3 0q0.2 0 0.4 0c0.1 0 0.1 0 0.3 0 0.2 0 0.2 0 0.3 0.2 0 0.3 0 0.3 0 0.6-0.1 0.1-0.1 0.1-0.3 0.1q-0.2 0-0.3 0-0.2 0-0.4 0c-0.1 0-0.1 0-0.3 0q-0.2 0-0.3 0-0.5 0-0.9 0 0 0.9 0 1.8 0.3 0 0.6 0 0.4 0 0.8 0 0.2 0 0.4 0 0.2 0 0.4 0 0.1 0 0.3 0c0.3 0 0.3 0 0.4 0.1 0 0.3 0 0.3 0 0.6-0.2 0.3-0.6 0.2-0.9 0.2q-0.3 0-0.5 0-0.1 0-0.3 0-0.4 0-0.8 0c-0.2 0-0.2 0-0.4 0q-0.3 0-0.5 0c-0.3-0.1-0.3-0.1-0.5-0.2q0-0.2 0-0.5 0-0.2 0-0.4 0-0.1 0-0.3 0-0.2 0-0.4 0-0.4 0-0.8 0-0.7 0-1.3 0-0.4 0-0.8 0-0.1 0-0.3 0-0.2 0-0.4 0-0.1 0-0.3c0-0.4 0.1-0.4 0.5-0.4z"/>
		<path class="s2" d="m69.8 62.3q0.7-0.1 1.5-0.1 0.3 0 0.6 0 0.4 0 0.8 0 0.2 0 0.4 0c0.4 0.1 0.4 0.1 0.5 0.2 0 0.3 0 0.3 0 0.6-0.1 0.1-0.1 0.1-0.4 0.1q-0.1 0-0.3 0-0.2 0-0.4 0-0.2 0-0.4 0-0.2 0-0.4 0-0.5 0-0.9 0 0 0.8 0 1.7 1.1 0 2.3 0 0 0.4 0 0.8-1.1 0-2.3 0 0 0.9 0 1.8 0.2 0 0.5 0 0.4 0 0.8 0 0.2 0 0.4 0 0.2 0 0.4 0 0.2 0 0.3 0c0.3 0 0.3 0 0.4 0.1 0 0.3 0 0.3 0 0.6-0.2 0.3-0.6 0.2-0.9 0.2q-0.2 0-0.5 0-0.1 0-0.3 0-0.3 0-0.7 0c-0.3 0-0.3 0-0.5 0q-0.2 0-0.5 0c-0.3 0-0.3 0-0.4-0.2q-0.1-0.2-0.1-0.5 0-0.2 0-0.4 0-0.2 0-0.4 0-0.2 0-0.4 0-0.6 0-1.2 0-0.4 0-0.9 0-1 0.1-2z"/>
		<path class="s2" d="m75.6 50.8c0.2 0.2 0.2 0.2 0.2 0.5 0 0.3 0 0.3-0.3 0.6-0.4-0.1-0.6-0.2-1-0.3-0.6-0.3-1-0.3-1.6-0.1-0.6 0.4-0.9 0.8-1.1 1.4-0.1 0.8 0 1.3 0.5 2 0.4 0.4 0.8 0.5 1.4 0.5 0.5 0 0.8-0.2 1.3-0.4 0.3 0 0.3 0 0.6 0.1q0.1 0.2 0.3 0.4c-0.2 0.5-0.3 0.5-0.7 0.7q-1.3 0.6-2.7 0.2c-0.8-0.4-1.4-0.9-1.8-1.7-0.3-0.9-0.3-1.8 0.1-2.7q0.7-1.2 1.9-1.6c1-0.3 1.9-0.1 2.9 0.4z"/>
		<path class="s2" d="m104 62.3c2.9 0 2.9 0 3.6 0.5 0.4 0.4 0.6 0.8 0.6 1.3-0.1 0.7-0.3 1.2-0.8 1.6-0.6 0.4-0.9 0.4-1.6 0.4-0.2 0-0.2 0-0.5 0q-0.1 0-0.3 0 0 0.2 0 0.5 0 0.2 0 0.5 0 0.2 0 0.3 0 0.4 0 0.7c-0.1 0.1-0.1 0.1-0.1 0.2q-0.5 0-0.9 0 0-3 0-6zm1 0.8q0 1 0 2c0.9 0.1 0.9 0.1 1.7-0.1 0.3-0.3 0.4-0.6 0.4-1-0.1-0.4-0.2-0.5-0.5-0.7-0.3-0.2-0.6-0.2-1-0.2-0.3 0-0.3 0-0.6 0z"/>
		<path class="s2" d="m94.1 50.8q0 0.3-0.1 0.7c-0.6 0.2-0.6 0.2-0.9 0-0.4-0.2-0.7-0.2-1.2-0.1-0.3 0.2-0.3 0.2-0.3 0.6 0.1 0.4 0.1 0.4 0.5 0.6q0.3 0.2 0.5 0.3c1.5 0.7 1.5 0.7 1.8 1.4 0.1 0.5 0 1-0.2 1.5-0.5 0.5-0.8 0.7-1.4 0.7-0.8 0.1-1.5 0-2.2-0.5-0.1-0.3-0.1-0.3-0.1-0.6 0.2-0.3 0.2-0.3 0.4-0.4 0.6 0.2 0.6 0.2 0.8 0.4 0.4 0.1 0.7 0.1 1.1 0.1 0.4-0.2 0.4-0.2 0.4-0.6 0-0.4 0-0.4-0.3-0.6q-0.6-0.4-1.3-0.7c-0.5-0.2-0.8-0.6-1.1-1.1-0.1-0.5-0.1-1 0.1-1.5 0.9-1 2.4-0.9 3.5-0.2z"/>
		<path class="s2" d="m102.9 50.8c0 0.2 0 0.2 0 0.6-0.4 0.2-0.4 0.2-0.7 0.2q-0.1-0.1-0.2-0.1c-0.5-0.2-0.9-0.2-1.4-0.1-0.2 0.3-0.2 0.3-0.2 0.7 0.2 0.5 0.6 0.6 1.1 0.8 0.8 0.4 1.3 0.6 1.6 1.4 0.1 0.5 0.1 1-0.1 1.4-0.3 0.4-0.6 0.6-1 0.8-1 0.1-1.8 0.1-2.6-0.5-0.2-0.3-0.2-0.3-0.2-0.6 0.3-0.2 0.3-0.2 0.7-0.4q0.4 0.2 0.7 0.4c0.4 0.2 0.6 0.2 1 0.1 0.3-0.1 0.3-0.1 0.4-0.4 0-0.3 0-0.3-0.1-0.6-0.4-0.3-0.9-0.6-1.4-0.8-1-0.6-1-0.6-1.3-1.3 0-0.6 0-0.8 0.3-1.3 0.9-1.2 2.1-0.9 3.4-0.3z"/>
		<path class="s2" d="m88.3 50.5c0.3 0.3 0.3 0.3 0.5 0.5 0 0.3 0 0.3-0.2 0.5-0.2 0.1-0.2 0.1-0.5 0.1-0.3-0.1-0.3-0.1-0.6-0.2q-0.3 0-0.6 0-0.2 0-0.4 0-0.1 0-0.2 0c-0.1 0.4-0.1 0.4 0 0.8 0.2 0.3 0.6 0.5 1 0.7 1.3 0.7 1.3 0.7 1.6 1.2 0.1 0.6 0.1 1 0 1.6-0.3 0.4-0.6 0.6-1.1 0.8-0.9 0.1-1.6 0.1-2.4-0.3-0.2-0.2-0.3-0.4-0.4-0.7q0.2-0.2 0.5-0.5c0.6 0.2 0.6 0.2 0.9 0.4 0.3 0.1 0.6 0.1 1 0.1q0.2-0.1 0.4-0.3c0-0.4 0-0.4-0.2-0.8-0.3-0.2-0.5-0.4-0.9-0.5-0.7-0.3-1.1-0.6-1.6-1.3-0.1-0.6-0.1-1.2 0.2-1.7 0.9-0.8 1.9-0.8 3-0.4z"/>
		<path class="s2" d="m170.4 50.4q0.5 0 1 0c0.7 1.3 1.3 2.6 1.8 4q0.1-0.2 0.2-0.4 0.3-0.6 0.6-1.3 0.1-0.3 0.2-0.5 0.2-0.4 0.4-0.8 0.1-0.2 0.1-0.3c0.3-0.6 0.3-0.6 0.4-0.7q0.5 0 1 0c-0.1 0.6-0.3 1.1-0.5 1.6q-0.1 0.2-0.2 0.3-0.1 0.3-0.2 0.6-0.2 0.5-0.5 0.9-0.1 0.3-0.2 0.6-0.1 0.2-0.1 0.3-0.5 0.9-0.9 1.8c-0.3 0-0.3 0-0.6-0.1-0.2-0.3-0.4-0.6-0.5-1-0.1-0.1-0.1-0.1-0.1-0.3q-0.2-0.5-0.4-0.9-0.2-0.5-0.4-0.9-0.2-0.3-0.3-0.6-0.3-0.8-0.7-1.6c-0.1-0.2-0.1-0.2-0.1-0.7z"/>
		<path class="s2" d="m105.4 50.4q0.1 0 0.2 0 0.3 0 0.6 0 0.4 0 0.8 0 0.3 0 0.5 0 0.3 0 0.5 0c0.4 0 0.4 0 0.5 0.1 0 0.3 0 0.3 0 0.6-0.1 0.2-0.1 0.2-0.5 0.2-0.2 0-0.2 0-0.4 0q-0.2 0-0.4 0-0.2 0-0.3 0c0 0.2 0 0.2 0 0.4q0 0.9 0 1.7 0 0.4 0 0.8 0 0.5 0 1 0 0.2 0 0.4 0 0.4 0 0.8c-0.2 0.1-0.2 0.1-0.5 0.1-0.4 0-0.4 0-0.5-0.1q0-0.6 0-1.2 0-0.1 0-0.3 0-0.5 0-1.1 0-0.4 0-0.7 0-0.9 0-1.8-0.8 0-1.5 0c0-1.1 0-0.9 1-0.9z"/>
		<path class="s2" d="m152.4 47.9c0.3 0 0.3 0 0.5 0.1q0 0.4 0 0.8c0 0.2 0 0.2 0 0.5q0 0.2 0 0.5 0 0.3 0 0.6 0 0.5 0 1.1 0 0.8 0 1.5 0 0.6 0 1.2 0 0.2 0 0.5 0 0.4 0 0.8 0 0.2 0 0.4c0 0.4 0 0.4-0.3 0.6-0.3 0-0.3 0-0.6 0-0.2-0.2-0.1-0.6-0.1-0.9q0-0.1 0-0.3 0-0.4 0-0.8 0-0.2 0-0.5 0-0.6 0-1.2 0-0.8 0-1.5 0-0.6 0-1.2 0-0.3 0-0.5 0-0.4 0-0.8 0-0.2 0-0.5c0-0.4 0-0.4 0.5-0.4z"/>
		<path class="s2" d="m96.8 50.4q0.2 0 0.5 0 0 1.3 0 2.5 0 0.5 0 0.9 0 0.6 0 1.3 0 0.1 0 0.3 0 0.2 0 0.4 0 0.2 0 0.3c0 0.3 0 0.3-0.2 0.4-0.3 0-0.3 0-0.7 0-0.2-0.2-0.2-0.4-0.2-0.7 0-0.2 0-0.2 0-0.3q0-0.2 0-0.4 0-0.2 0-0.4 0-0.4 0-0.8 0-0.7 0-1.3 0-0.4 0-0.8 0-0.2 0-0.4 0-0.2 0-0.3 0-0.2 0-0.4c0.1-0.4 0.2-0.3 0.6-0.3z"/>
		<path class="s2" d="m169.7 64.6q0.2 0 0.4 0 0.2 0 0.4 0 0.2 0 0.4 0 0.2 0 0.4 0c0.2 0 0.2 0 0.4 0 0.3 0 0.3 0 0.4 0.2 0 0.4 0 0.4 0 0.8-0.2 0.2-0.5 0.2-0.8 0.2q-0.2 0-0.4 0-0.2 0-0.4 0-0.2 0-0.4 0-0.2 0-0.4 0-0.2 0-0.4 0c-0.3 0-0.3 0-0.4-0.2 0-0.4 0-0.4 0-0.8 0.2-0.3 0.5-0.2 0.8-0.2z"/>
		<path class="s2" d="m192.8 48.8q0.1 0.1 0.3 0.2 0.2-0.2 0.4-0.4 0.2 0.1 0.4 0.2c0 0.2 0 0.2 0 0.6-0.3 0.3-0.3 0.3-0.7 0.5-0.4 0-0.8-0.3-1.2-0.5q-0.2 0.2-0.4 0.4-0.2-0.1-0.4-0.2c0.1-0.4 0.1-0.7 0.4-1 0.5-0.1 0.7 0 1.1 0.2z"/>
	</g>
</svg>