<svg width="30" height="30" viewBox="0 0 30 30" fill="none" xmlns="http://www.w3.org/2000/svg">
<g clip-path="url(#clip0_34_97)">
<path d="M6.85116 2.48982C6.74047 2.34743 6.60075 2.23023 6.44129 2.14599C6.28182 2.06175 6.10626 2.01241 5.92625 2.00124C5.74625 1.99006 5.56593 2.01732 5.39727 2.08119C5.22862 2.14506 5.07548 2.24409 4.94803 2.3717L3.00928 4.31232C2.10366 5.21982 1.76991 6.5042 2.16553 7.63107C3.80754 12.2953 6.47858 16.53 9.98053 20.0211C13.4716 23.523 17.7063 26.194 22.3705 27.8361C23.4974 28.2317 24.7818 27.8979 25.6893 26.9923L27.628 25.0536C27.7556 24.9261 27.8547 24.773 27.9185 24.6043C27.9824 24.4357 28.0097 24.2554 27.9985 24.0753C27.9873 23.8953 27.938 23.7198 27.8537 23.5603C27.7695 23.4009 27.6523 23.2611 27.5099 23.1504L23.1843 19.7867C23.0322 19.6687 22.8552 19.5868 22.6669 19.5472C22.4785 19.5076 22.2835 19.5112 22.0968 19.5579L17.9905 20.5836C17.4424 20.7206 16.8682 20.7133 16.3237 20.5625C15.7793 20.4117 15.2832 20.1224 14.8837 19.7229L10.2787 15.1161C9.87885 14.7168 9.58927 14.2207 9.43812 13.6763C9.28697 13.1318 9.2794 12.5575 9.41616 12.0092L10.4437 7.90295C10.4904 7.71619 10.494 7.52126 10.4544 7.33288C10.4148 7.14449 10.3329 6.96756 10.2149 6.81545L6.85116 2.48982ZM3.53241 0.957946C3.86052 0.629726 4.25471 0.375065 4.68879 0.210873C5.12288 0.0466809 5.58692 -0.0232854 6.05012 0.00562014C6.51332 0.0345257 6.96507 0.161642 7.37537 0.378527C7.78567 0.595413 8.14514 0.897105 8.42991 1.26357L11.7937 5.58732C12.4105 6.38045 12.628 7.41357 12.3843 8.38857L11.3587 12.4948C11.3056 12.7075 11.3085 12.9303 11.367 13.1415C11.4255 13.3528 11.5376 13.5453 11.6924 13.7004L16.2993 18.3073C16.4546 18.4625 16.6475 18.5748 16.8591 18.6333C17.0707 18.6918 17.2938 18.6944 17.5068 18.6411L21.6112 17.6154C22.0923 17.4951 22.5945 17.4858 23.0798 17.5881C23.5651 17.6904 24.0208 17.9017 24.4124 18.2061L28.7362 21.5698C30.2905 22.7792 30.433 25.0761 29.0418 26.4654L27.103 28.4042C25.7155 29.7917 23.6418 30.4011 21.7087 29.7204C16.7609 27.9796 12.2685 25.147 8.56491 21.4329C4.85107 17.7298 2.01855 13.2382 0.277406 8.29107C-0.401344 6.35982 0.208031 4.2842 1.59553 2.8967L3.53428 0.957946H3.53241Z" fill="black"/>
</g>
<defs>
<clipPath id="clip0_34_97">
<rect width="30" height="30" fill="white"/>
</clipPath>
</defs>
</svg>
