<svg width="30" height="30" viewBox="0 0 30 30" fill="none" xmlns="http://www.w3.org/2000/svg">
<g clip-path="url(#clip0_34_99)">
<path d="M22.1166 15.0001C22.1131 13.8795 21.993 12.7624 21.7582 11.6667H24.7582C24.6037 11.2097 24.4171 10.7642 24.1999 10.3334H21.4082C20.8834 8.58013 20.0694 6.92682 18.9999 5.44175C18.3165 5.15442 17.604 4.94206 16.8749 4.80841C18.3402 6.38278 19.4462 8.25649 20.1166 10.3001H15.6249V4.66675H14.3749V10.3084H9.88322C10.5549 8.26112 11.6639 6.38441 13.1332 4.80841C12.4072 4.93983 11.6975 5.14938 11.0166 5.43341C9.94277 6.91227 9.12319 8.55988 8.59155 10.3084H5.78322C5.56203 10.747 5.37265 11.201 5.21655 11.6667H8.24155C8.00679 12.7624 7.8867 13.8795 7.88322 15.0001C7.88552 16.2257 8.02529 17.4473 8.29989 18.6417H5.34989C5.52229 19.1089 5.72838 19.5628 5.96655 20.0001H8.65822C9.16839 21.5966 9.92473 23.1036 10.8999 24.4667C11.5982 24.7663 12.3277 24.9871 13.0749 25.1251C11.7148 23.6416 10.6689 21.8983 9.99989 20.0001H14.3832V25.2834H15.6332V20.0001H19.9999C19.3286 21.8991 18.2798 23.6424 16.9166 25.1251C17.6672 24.9823 18.3996 24.7559 19.0999 24.4501C20.0735 23.0921 20.8298 21.5908 21.3416 20.0001H24.0082C24.2453 19.5709 24.4514 19.1253 24.6249 18.6667H21.6666C21.9542 17.4654 22.1052 16.2354 22.1166 15.0001ZM14.3749 18.6417H9.59155C9.00486 16.3483 8.97914 13.9473 9.51655 11.6417H14.3749V18.6417ZM20.4082 18.6417H15.6249V11.6667H20.4832C20.7226 12.7615 20.84 13.8795 20.8332 15.0001C20.84 16.2267 20.6973 17.4496 20.4082 18.6417Z" fill="black"/>
<path d="M15.0001 1.66675C12.363 1.66675 9.78514 2.44873 7.59248 3.91382C5.39983 5.37891 3.69086 7.46129 2.68169 9.89764C1.67253 12.334 1.40848 15.0149 1.92295 17.6013C2.43742 20.1877 3.7073 22.5635 5.572 24.4282C7.4367 26.2929 9.81247 27.5628 12.3989 28.0772C14.9853 28.5917 17.6662 28.3276 20.1025 27.3185C22.5389 26.3093 24.6213 24.6003 26.0864 22.4077C27.5514 20.215 28.3334 17.6372 28.3334 15.0001C28.3334 11.4639 26.9287 8.07248 24.4282 5.57199C21.9277 3.07151 18.5363 1.66675 15.0001 1.66675ZM15.0001 26.6667C12.6926 26.6667 10.437 25.9825 8.51844 24.7006C6.59986 23.4186 5.10452 21.5965 4.22149 19.4647C3.33847 17.3329 3.10743 14.9871 3.55759 12.724C4.00775 10.4609 5.1189 8.38211 6.75051 6.7505C8.38212 5.11889 10.4609 4.00775 12.724 3.55759C14.9871 3.10743 17.3329 3.33846 19.4647 4.22149C21.5965 5.10451 23.4186 6.59985 24.7006 8.51843C25.9825 10.437 26.6668 12.6926 26.6668 15.0001C26.6668 18.0943 25.4376 21.0617 23.2497 23.2497C21.0617 25.4376 18.0943 26.6667 15.0001 26.6667Z" fill="black"/>
</g>
<defs>
<clipPath id="clip0_34_99">
<rect width="30" height="30" fill="white"/>
</clipPath>
</defs>
</svg>
